<?xml version="1.0" encoding="UTF-8"?>
<svg version="1.1" xmlns="http://www.w3.org/2000/svg" width="400" height="300">
<path d="M0 0 C132 0 264 0 400 0 C400 99 400 198 400 300 C268 300 136 300 0 300 C0 201 0 102 0 0 Z " fill="#EFEFEF" transform="translate(0,0)"/>
<path d="M0 0 C4.87132886 0.15420034 8.81881725 0.76945056 12.3125 4.375 C16.53862194 10.98482126 19.15428421 18.39477726 21.88671875 25.7109375 C23.64664513 30.2337072 25.54978917 34.68153718 27.5 39.125 C28.01796143 40.32406982 28.01796143 40.32406982 28.54638672 41.54736328 C30.09676087 45.67288488 30.09676087 45.67288488 33.3125 48.375 C34.88828283 48.50854924 36.46925022 48.58317843 38.05004883 48.62792969 C39.52717094 48.67237213 39.52717094 48.67237213 41.03413391 48.7177124 C42.63565559 48.75689789 42.63565559 48.75689789 44.26953125 48.796875 C45.36464523 48.82477112 46.45975922 48.85266724 47.58805847 48.88140869 C49.90898162 48.93787326 52.22997569 48.99148249 54.55102539 49.04248047 C58.10031301 49.12443 61.64856608 49.22799852 65.19726562 49.33203125 C67.45049015 49.38415625 69.70374522 49.4349801 71.95703125 49.484375 C73.54944389 49.53570587 73.54944389 49.53570587 75.17402649 49.58807373 C80.55030358 49.68010949 83.81959619 49.62502054 88.3125 46.375 C89.7975 46.87 89.7975 46.87 91.3125 47.375 C91.38726562 46.70855469 91.46203125 46.04210937 91.5390625 45.35546875 C93.14076197 34.12786955 98.39165357 23.67607386 107.515625 16.6875 C115.28942374 11.33336047 121.75866525 9.09499728 131.3125 10.375 C134.88745643 12.71247151 135.99749945 13.98899759 136.9375 18.125 C135.30831627 26.59675537 130.17901534 32.45207932 123.3125 37.375 C117.55607187 41.18559327 112.14833188 42.09484296 105.3125 42.375 C105.8075 46.335 105.8075 46.335 106.3125 50.375 C113.53077275 51.07354252 117.18032479 49.77992014 123.1484375 45.6875 C125.3125 44.375 125.3125 44.375 128.3125 44.375 C128.4671875 43.07175781 128.4671875 43.07175781 128.625 41.7421875 C130.62689279 31.93746258 137.42647141 24.15715877 145.3125 18.375 C149.66923917 15.50198005 153.11429354 14.35395463 158.3125 14.375 C161.52865293 15.28391278 162.95290128 16.01540128 165.3125 18.375 C166.02499791 22.124989 166.0502351 25.81404119 164.40234375 29.30078125 C163.1875 30.9375 163.1875 30.9375 160.3125 33.375 C157 33.75 157 33.75 154.3125 33.375 C153.66015625 31.640625 153.66015625 31.640625 153.3125 29.375 C154.30859375 27.234375 154.30859375 27.234375 155.75 25.125 C156.45962891 24.06539062 156.45962891 24.06539062 157.18359375 22.984375 C157.55613281 22.45328125 157.92867187 21.9221875 158.3125 21.375 C149.54755878 25.24788101 145.30425807 31.6764132 141 39.875 C140.01816114 43.44532312 140.18716706 46.67767831 140.3125 50.375 C145.66213389 50.93225353 148.93547093 50.1482039 153.41015625 47.125 C156.29095338 44.47490325 157.87427108 41.27946317 159.77734375 37.89453125 C162.29564426 33.76144262 164.87093844 30.46724684 169.3125 28.375 C173.7761783 28.05912485 177.93818673 28.45003508 182.3125 29.375 C182.6425 29.705 182.9725 30.035 183.3125 30.375 C183.03446362 33.06268498 182.70398797 35.70418208 182.3125 38.375 C182.04566406 40.24285156 182.04566406 40.24285156 181.7734375 42.1484375 C181.62132812 43.21320313 181.46921875 44.27796875 181.3125 45.375 C182.03566406 43.56902344 182.03566406 43.56902344 182.7734375 41.7265625 C183.41119196 40.15093382 184.04922741 38.57541886 184.6875 37 C185.00460937 36.2059375 185.32171875 35.411875 185.6484375 34.59375 C185.9578125 33.83320313 186.2671875 33.07265625 186.5859375 32.2890625 C186.86872559 31.5873291 187.15151367 30.8855957 187.44287109 30.16259766 C188.3125 28.375 188.3125 28.375 190.3125 26.375 C193.4375 26.75 193.4375 26.75 196.3125 27.375 C196.6425 28.365 196.9725 29.355 197.3125 30.375 C197.869375 29.694375 198.42625 29.01375 199 28.3125 C201.3125 26.375 201.3125 26.375 203.9375 26.375 C206.83162167 27.59357755 207.08908679 28.59145436 208.3125 31.375 C209.03953125 30.7253125 209.03953125 30.7253125 209.78125 30.0625 C213.39811887 27.05771664 215.97474683 24.94816693 220.8125 25 C221.9675 25.12375 223.1225 25.2475 224.3125 25.375 C224.6528125 24.1684375 224.6528125 24.1684375 225 22.9375 C226.65020356 18.45837605 228.38823906 14.18371043 231.3125 10.375 C234.5 9.1875 234.5 9.1875 237.3125 9.375 C238.3025 10.365 238.3025 10.365 239.3125 11.375 C239.07170223 17.19792783 237.05667858 21.47837888 234.375 26.5 C229.88649899 34.51026734 229.88649899 34.51026734 228.3125 43.375 C228.76625 42.715 229.22 42.055 229.6875 41.375 C230.491875 40.385 230.491875 40.385 231.3125 39.375 C231.9725 39.375 232.6325 39.375 233.3125 39.375 C233.04364094 43.22864648 232.49245652 45.13848571 230.125 48.25 C227.3125 50.375 227.3125 50.375 224.125 50.8125 C221.3125 50.375 221.3125 50.375 219.3125 48.375 C215.47381924 48.80152008 211.8092607 50.82835584 208.3125 52.375 C208.3125 53.035 208.3125 53.695 208.3125 54.375 C186.47126878 63.96263039 164.49275789 70.86556302 141.3125 76.375 C142.60160278 76.06647095 142.60160278 76.06647095 143.91674805 75.75170898 C165.30004454 70.60321753 186.23371988 65.10224261 206.4765625 56.34375 C209.3125 55.375 209.3125 55.375 212.3125 56.375 C188.94993432 68.48077091 165.62825367 76.68738628 139.5 80.8125 C137.95517944 81.05842896 137.95517944 81.05842896 136.37915039 81.30932617 C128.99540222 82.3759007 121.76563725 82.54450934 114.3125 82.375 C114.3125 81.715 114.3125 81.055 114.3125 80.375 C112.8275 80.87 112.8275 80.87 111.3125 81.375 C106.42128229 81.61730077 101.52165531 81.57071763 96.625 81.5625 C95.91765717 81.56156342 95.21031433 81.56062683 94.48153687 81.55966187 C71.63646057 81.49373794 43.90085264 79.40969699 25.3125 64.375 C26.3953125 64.5915625 26.3953125 64.5915625 27.5 64.8125 C28.8921875 65.0909375 28.8921875 65.0909375 30.3125 65.375 C31.97916667 65.70833333 33.64583333 66.04166667 35.3125 66.375 C34.3225 65.385 34.3225 65.385 33.3125 64.375 C32.96759678 60.32238713 33.01086118 58.82745824 35.3125 55.375 C34.44625 55.313125 33.58 55.25125 32.6875 55.1875 C28.60721986 54.20521034 26.10630919 52.41347525 23.3125 49.375 C21.75113345 46.82033604 20.65057415 44.15080341 19.55078125 41.37109375 C19.0747773 40.23064354 19.0747773 40.23064354 18.5891571 39.06715393 C17.58531425 36.65510458 16.60414351 34.23466801 15.625 31.8125 C14.63137635 29.38854004 13.63302317 26.96668405 12.62870789 24.5471344 C12.00721729 23.04641539 11.39247106 21.54288024 10.78547668 20.03623962 C9.32538668 16.47709182 7.95942547 13.20810752 5.3125 10.375 C2.88212035 9.75272867 2.88212035 9.75272867 0.25 9.75 C-4.49360687 9.56889313 -4.49360687 9.56889313 -6.6875 7.375 C-6.9375 4.875 -6.9375 4.875 -6.6875 2.375 C-4.22776222 -0.08473778 -3.39450615 0.05198325 0 0 Z " fill="#E4EAEF" transform="translate(83.6875,118.625)"/>
<path d="M0 0 C3.57495643 2.33747151 4.68499945 3.61399759 5.625 7.75 C3.99581627 16.22175537 -1.13348466 22.07707932 -8 27 C-13.75642813 30.81059327 -19.16416812 31.71984296 -26 32 C-25.67 34.64 -25.34 37.28 -25 40 C-17.78172725 40.69854252 -14.13217521 39.40492014 -8.1640625 35.3125 C-6 34 -6 34 -3 34 C-2.896875 33.13117188 -2.79375 32.26234375 -2.6875 31.3671875 C-0.68560721 21.56246258 6.11397141 13.78215877 14 8 C18.35673917 5.12698005 21.80179354 3.97895463 27 4 C30.21615293 4.90891278 31.64040128 5.64040128 34 8 C34.71249791 11.749989 34.7377351 15.43904119 33.08984375 18.92578125 C31.875 20.5625 31.875 20.5625 29 23 C25.6875 23.375 25.6875 23.375 23 23 C22.34765625 21.265625 22.34765625 21.265625 22 19 C22.99609375 16.859375 22.99609375 16.859375 24.4375 14.75 C25.14712891 13.69039062 25.14712891 13.69039062 25.87109375 12.609375 C26.24363281 12.07828125 26.61617188 11.5471875 27 11 C18.23505878 14.87288101 13.99175807 21.3014132 9.6875 29.5 C8.70566114 33.07032312 8.87466706 36.30267831 9 40 C14.34963389 40.55725353 17.62297093 39.7732039 22.09765625 36.75 C24.97845338 34.09990325 26.56177108 30.90446317 28.46484375 27.51953125 C30.98314426 23.38644262 33.55843844 20.09224684 38 18 C42.4636783 17.68412485 46.62568673 18.07503508 51 19 C51.33 19.33 51.66 19.66 52 20 C51.72196362 22.68768498 51.39148797 25.32918208 51 28 C50.73316406 29.86785156 50.73316406 29.86785156 50.4609375 31.7734375 C50.30882812 32.83820313 50.15671875 33.90296875 50 35 C50.48210937 33.79601562 50.96421875 32.59203125 51.4609375 31.3515625 C52.09869196 29.77593382 52.73672741 28.20041886 53.375 26.625 C53.69210937 25.8309375 54.00921875 25.036875 54.3359375 24.21875 C54.8 23.07792969 54.8 23.07792969 55.2734375 21.9140625 C55.55622559 21.2123291 55.83901367 20.5105957 56.13037109 19.78759766 C57 18 57 18 59 16 C62.125 16.375 62.125 16.375 65 17 C65.495 18.485 65.495 18.485 66 20 C66.556875 19.319375 67.11375 18.63875 67.6875 17.9375 C68.8321875 16.9784375 68.8321875 16.9784375 70 16 C72.75 16.25 72.75 16.25 75 17 C75.99752325 20.17393763 76.13012788 21.65554385 74.9375 24.8125 C74.298125 25.534375 73.65875 26.25625 73 27 C71 27 69 27 67 27 C63.42777832 30.35572339 61.47837201 34.75359225 59.34375 39.109375 C58 41 58 41 55.98046875 41.796875 C53.75336778 42.02529561 52.14127861 41.59069755 50 41 C49.67 41.33 49.34 41.66 49 42 C47.00041636 42.04080783 44.99954746 42.04254356 43 42 C42.01 40.02 42.01 40.02 41 38 C40.01 38.99 40.01 38.99 39 40 C34.92887758 42.71408161 32.8224083 42.47433524 28 42 C27.34 41.34 26.68 40.68 26 40 C25.40832031 40.48210937 24.81664062 40.96421875 24.20703125 41.4609375 C23.41683594 42.09257812 22.62664062 42.72421875 21.8125 43.375 C21.03519531 44.00148437 20.25789063 44.62796875 19.45703125 45.2734375 C14.73239408 48.59345281 10.7692509 49.60728957 5 49 C0.08915291 46.54457646 -1.93429006 44.04951318 -4 39 C-4.38929688 39.51949219 -4.77859375 40.03898437 -5.1796875 40.57421875 C-10.07212342 46.67285431 -15.52030777 51.17500672 -23.46484375 52.37109375 C-27.63769151 52.48912771 -31.36072342 52.18356595 -35 50 C-38.9030456 45.66328267 -40.26087128 43.14608481 -40.14453125 37.265625 C-39.4403544 26.22717705 -34.17647503 15.50135324 -26 8 C-17.72768478 1.66375855 -10.58582945 -1.41826721 0 0 Z " fill="#097CE8" transform="translate(215,129)"/>
<path d="M0 0 C2.6875 0.25 2.6875 0.25 4.625 1.8125 C6.70183698 3.59986754 6.70183698 3.59986754 9.8125 2.875 C10.76125 2.66875 11.71 2.4625 12.6875 2.25 C13.3475 2.58 14.0075 2.91 14.6875 3.25 C14.8125 9 14.8125 9 13.6875 11.25 C15.0075 11.58 16.3275 11.91 17.6875 12.25 C19.06182457 16.06756824 18.36725039 19.32255329 17.6875 23.25 C19.0075 23.58 20.3275 23.91 21.6875 24.25 C21.71435412 26.56243792 21.73382841 28.8749627 21.75 31.1875 C21.76160156 32.47527344 21.77320313 33.76304687 21.78515625 35.08984375 C21.6875 38.25 21.6875 38.25 20.6875 39.25 C18.69862506 39.34930533 16.70619583 39.37799462 14.71484375 39.37939453 C13.43681885 39.38254669 12.15879395 39.38569885 10.84204102 39.38894653 C9.43636033 39.38715675 8.03067995 39.3851058 6.625 39.3828125 C5.19392887 39.38348558 3.76285785 39.38445564 2.33178711 39.38571167 C-0.67107224 39.38718844 -3.6739019 39.38503476 -6.67675781 39.38037109 C-10.53402571 39.37467381 -14.39122404 39.37795292 -18.24848938 39.38394356 C-21.20463591 39.38754974 -24.16076583 39.38641032 -27.11691284 39.38381577 C-28.53954069 39.38314665 -29.96217003 39.38397437 -31.38479614 39.38629532 C-33.36981174 39.38882274 -35.35483259 39.38429042 -37.33984375 39.37939453 C-39.03741821 39.37820114 -39.03741821 39.37820114 -40.76928711 39.37698364 C-43.3125 39.25 -43.3125 39.25 -44.3125 38.25 C-44.39963831 36.54227642 -44.41950007 34.83101351 -44.41015625 33.12109375 C-44.40693359 32.08662109 -44.40371094 31.05214844 -44.40039062 29.98632812 C-44.39201172 28.89771484 -44.38363281 27.80910156 -44.375 26.6875 C-44.37048828 25.59501953 -44.36597656 24.50253906 -44.36132812 23.37695312 C-44.34949826 20.66791505 -44.33301543 17.95898401 -44.3125 15.25 C-43.68472656 14.9921875 -43.05695313 14.734375 -42.41015625 14.46875 C-39.18944778 12.59750039 -38.69217032 9.60919729 -37.3125 6.25 C-33.5919164 3.76961093 -31.71453429 3.78662797 -27.3125 4.25 C-24.875 6.125 -24.875 6.125 -23.3125 8.25 C-23.3125 8.91 -23.3125 9.57 -23.3125 10.25 C-21.3325 10.25 -19.3525 10.25 -17.3125 10.25 C-17.3125 10.91 -17.3125 11.57 -17.3125 12.25 C-15.0025 12.25 -12.6925 12.25 -10.3125 12.25 C-9.6525 10.27 -8.9925 8.29 -8.3125 6.25 C-6.6625 6.25 -5.0125 6.25 -3.3125 6.25 C-3.333125 5.445625 -3.35375 4.64125 -3.375 3.8125 C-3.29435159 0.50591536 -3.25606188 0.35200669 0 0 Z " fill="#0A7DE9" transform="translate(149.3125,98.75)"/>
<path d="M0 0 C0.65202896 -0.00175232 1.30405792 -0.00350464 1.97584534 -0.00531006 C4.14082465 -0.00972751 6.30572291 -0.00679098 8.47070312 -0.00341797 C9.96903499 -0.00409104 11.46736675 -0.00506109 12.96569824 -0.00631714 C16.10979245 -0.00779397 19.2538583 -0.00564005 22.39794922 -0.00097656 C26.43681851 0.00472073 30.47562137 0.00144164 34.51448822 -0.00454903 C37.60960393 -0.00815505 40.70470377 -0.00701586 43.79981995 -0.00442123 C45.28943388 -0.00375208 46.77904923 -0.00457999 48.2686615 -0.00690079 C50.34711548 -0.009428 52.42546044 -0.0055858 54.50390625 0 C56.28142273 0.00119339 56.28142273 0.00119339 58.09484863 0.00241089 C60.75195312 0.12939453 60.75195312 0.12939453 61.75195312 1.12939453 C61.35870884 7.32471678 59.75709722 12.33308238 57.31445312 18.00439453 C57.00185547 18.76236328 56.68925781 19.52033203 56.3671875 20.30126953 C54.0327831 25.84856456 54.0327831 25.84856456 51.75195312 28.12939453 C49.75405884 28.39682007 49.75405884 28.39682007 47.27392578 28.41992188 C46.34601227 28.43268158 45.41809875 28.44544128 44.46206665 28.45858765 C42.95427139 28.46192612 42.95427139 28.46192612 41.41601562 28.46533203 C39.86966934 28.47531723 39.86966934 28.47531723 38.29208374 28.48550415 C36.10815214 28.49564296 33.92418949 28.50032079 31.74023438 28.5 C28.39726663 28.50436799 25.05562412 28.54066128 21.71289062 28.57861328 C19.59310348 28.58448216 17.47331006 28.58845108 15.35351562 28.59033203 C13.85179306 28.61188858 13.85179306 28.61188858 12.31973267 28.63388062 C5.40793783 28.58835583 5.40793783 28.58835583 2.22314453 26.36010742 C0.8380835 24.25999082 -0.36038641 22.27223668 -1.38867188 19.97705078 C-1.91074219 18.81206055 -1.91074219 18.81206055 -2.44335938 17.62353516 C-2.96542969 16.41987305 -2.96542969 16.41987305 -3.49804688 15.19189453 C-3.8615625 14.39332031 -4.22507812 13.59474609 -4.59960938 12.77197266 C-7.87454928 5.34179885 -7.87454928 5.34179885 -7.24804688 1.12939453 C-5.41121465 -0.70743769 -2.46149216 0.0016526 0 0 Z " fill="#057AE9" transform="translate(113.248046875,138.87060546875)"/>
<path d="M0 0 C-16.50069963 14.10613899 -45.48087374 18.12305542 -66 23 C-65.14059814 22.79431396 -64.28119629 22.58862793 -63.39575195 22.37670898 C-42.01245546 17.22821753 -21.07878012 11.72724261 -0.8359375 2.96875 C2 2 2 2 5 3 C-18.36256568 15.10577091 -41.68424633 23.31238628 -67.8125 27.4375 C-68.84238037 27.60145264 -69.87226074 27.76540527 -70.93334961 27.93432617 C-78.31709778 29.0009007 -85.54686275 29.16950934 -93 29 C-93 28.34 -93 27.68 -93 27 C-94.485 27.495 -94.485 27.495 -96 28 C-100.89121771 28.24230077 -105.79084469 28.19571763 -110.6875 28.1875 C-111.39484283 28.18656342 -112.10218567 28.18562683 -112.83096313 28.18466187 C-135.67603943 28.11873794 -163.41164736 26.03469699 -182 11 C-177.63808874 11.75088995 -173.51092558 13.07141255 -169.3125 14.4375 C-160.11518205 17.34975826 -151.87500077 19.28629035 -142.15234375 18.97265625 C-140 19 -140 19 -139 20 C-107.68024876 21.20010905 -76.81861097 14.84536788 -47.1171875 5.5859375 C-46.23514648 5.31362305 -45.35310547 5.04130859 -44.44433594 4.76074219 C-42.92822117 4.28888705 -41.4151293 3.80704452 -39.90722656 3.30957031 C-36.2388338 2.14527979 -34.89825091 2.02543727 -31 3 C-40.57 5.97 -50.14 8.94 -60 12 C-51.15450563 9.78862641 -42.76344487 7.3228892 -34.23046875 4.25390625 C-33.35003906 3.94839844 -32.46960938 3.64289063 -31.5625 3.328125 C-30.78003906 3.0487207 -29.99757813 2.76931641 -29.19140625 2.48144531 C-26.75405052 1.94596565 -25.33894943 2.20481047 -23 3 C-32.36394967 7.22405714 -41.94677586 10.35163994 -51.76660156 13.31982422 C-53.69081096 13.90583727 -55.60789132 14.51516695 -57.5234375 15.12890625 C-68.45847797 18.50473594 -79.72011269 20.18658829 -91 22 C-82.86269648 21.42536804 -75.02732606 19.90858574 -67.0625 18.1875 C-65.86431641 17.93935547 -64.66613281 17.69121094 -63.43164062 17.43554688 C-56.87302766 16.03089571 -50.66813813 14.30915615 -44.40551758 11.90795898 C-41.24532044 10.71514734 -38.07268989 9.82038847 -34.8125 8.9375 C-29.74969186 7.52837958 -24.87765965 5.95106386 -20 4 C-20.33 3.34 -20.66 2.68 -21 2 C-18.6739143 1.61936779 -16.33944736 1.28730055 -14 1 C-13.67 1.33 -13.34 1.66 -13 2 C-11.96875 1.67 -10.9375 1.34 -9.875 1 C-6.51573291 0.0284808 -3.50893798 -0.17116771 0 0 Z " fill="#0F7FE9" transform="translate(291,172)"/>
<path d="M0 0 C4.87132886 0.15420034 8.81881725 0.76945056 12.3125 4.375 C16.53862194 10.98482126 19.15428421 18.39477726 21.88671875 25.7109375 C23.64664513 30.2337072 25.54978917 34.68153718 27.5 39.125 C28.01796143 40.32406982 28.01796143 40.32406982 28.54638672 41.54736328 C30.09676087 45.67288488 30.09676087 45.67288488 33.3125 48.375 C36.13391433 48.52024463 38.93442373 48.60937377 41.7578125 48.65625 C42.60165497 48.67465942 43.44549744 48.69306885 44.31491089 48.71203613 C47.02236864 48.77086608 49.72989207 48.82357756 52.4375 48.875 C55.12367722 48.92662014 57.8097766 48.97973223 60.49581909 49.03796387 C62.16755278 49.0741883 63.83937229 49.10671109 65.51126099 49.1348877 C70.51267823 49.24294763 75.3579557 49.67659941 80.3125 50.375 C79.78981534 53.13776177 79.20380413 55.7010876 78.3125 58.375 C78.35375 59.365 78.395 60.355 78.4375 61.375 C78.3125 64.375 78.3125 64.375 77.1875 66.25 C74.43159116 67.90354531 72.46174548 67.76865568 69.3125 67.375 C67.4375 66.25 67.4375 66.25 66.3125 64.375 C65.88771414 60.29705575 65.99967413 58.84423881 68.3125 55.375 C60.3925 55.375 52.4725 55.375 44.3125 55.375 C44.8075 59.83 44.8075 59.83 45.3125 64.375 C43.75 66.5 43.75 66.5 41.3125 67.375 C37.63956204 67.15462372 35.94283454 67.00533454 33.3125 64.375 C32.96759678 60.32238713 33.01086118 58.82745824 35.3125 55.375 C34.44625 55.313125 33.58 55.25125 32.6875 55.1875 C28.60721986 54.20521034 26.10630919 52.41347525 23.3125 49.375 C21.75113345 46.82033604 20.65057415 44.15080341 19.55078125 41.37109375 C19.0747773 40.23064354 19.0747773 40.23064354 18.5891571 39.06715393 C17.58531425 36.65510458 16.60414351 34.23466801 15.625 31.8125 C14.63137635 29.38854004 13.63302317 26.96668405 12.62870789 24.5471344 C12.00721729 23.04641539 11.39247106 21.54288024 10.78547668 20.03623962 C9.32538668 16.47709182 7.95942547 13.20810752 5.3125 10.375 C2.88212035 9.75272867 2.88212035 9.75272867 0.25 9.75 C-4.49360687 9.56889313 -4.49360687 9.56889313 -6.6875 7.375 C-6.9375 4.875 -6.9375 4.875 -6.6875 2.375 C-4.22776222 -0.08473778 -3.39450615 0.05198325 0 0 Z " fill="#0C7DE8" transform="translate(83.6875,118.625)"/>
<path d="M0 0 C0.495 0.495 0.495 0.495 1 1 C0.63615673 6.80664163 -1.2214046 11.03893109 -3.9375 16.125 C-8.42600101 24.13526734 -8.42600101 24.13526734 -10 33 C-9.54625 32.34 -9.0925 31.68 -8.625 31 C-8.08875 30.34 -7.5525 29.68 -7 29 C-6.34 29 -5.68 29 -5 29 C-5.26885906 32.85364648 -5.82004348 34.76348571 -8.1875 37.875 C-11 40 -11 40 -14.1875 40.4375 C-17 40 -17 40 -19 38 C-21.31547379 38.30872984 -22.91681014 38.95169621 -24.9375 40.125 C-27.67563184 41.28663169 -29.20181584 40.8836371 -32 40 C-34 38 -34 38 -34.4375 34.5 C-34.25763955 28.32853821 -31.54885399 22.76538284 -27.390625 18.25390625 C-23.00656495 14.70442644 -19.5220681 14.51560806 -14 15 C-13.773125 14.195625 -13.54625 13.39125 -13.3125 12.5625 C-7.93464858 -2.03452528 -7.93464858 -2.03452528 0 0 Z " fill="#087CE9" transform="translate(322,129)"/>
<path d="M0 0 C0.99 0.495 0.99 0.495 2 1 C1.505 1.99 1.01 2.98 0.5 4 C-1.29977687 8.22519046 -1.44976125 11.42742732 -1 16 C0.33830958 18.4595774 0.33830958 18.4595774 2 20 C1.67 20.66 1.34 21.32 1 22 C-1.07421875 22.37890625 -1.07421875 22.37890625 -3.6875 22.5625 C-7.50722047 22.8685148 -11.22289396 23.33900644 -15 24 C-15.66 24 -16.32 24 -17 24 C-17.66 24.66 -18.32 25.32 -19 26 C-21.59539366 27.02642687 -24.17371505 27.97473891 -26.8125 28.875 C-27.58368164 29.14111084 -28.35486328 29.40722168 -29.14941406 29.68139648 C-31.43009702 30.46298682 -33.71417981 31.23358098 -36 32 C-37.08152344 32.36480469 -38.16304688 32.72960937 -39.27734375 33.10546875 C-61.37100815 40.21840933 -84.74374112 45.35963287 -108 45 C-108 44.67 -108 44.34 -108 44 C-107.14470703 43.89977539 -106.28941406 43.79955078 -105.40820312 43.69628906 C-82.96977676 41.10927245 -82.96977676 41.10927245 -61 36 C-59.32757704 35.53892252 -57.65433817 35.08079837 -55.98046875 34.625 C-44.80606435 31.55023876 -33.8698032 28.01741088 -23 24 C-24.98 24 -26.96 24 -29 24 C-28.505 22.515 -28.505 22.515 -28 21 C-28.66 20.67 -29.32 20.34 -30 20 C-25.67265609 17.77076223 -22.71599818 18.07529447 -18 19 C-17.29423828 17.75283203 -17.29423828 17.75283203 -16.57421875 16.48046875 C-15.95160156 15.39378906 -15.32898438 14.30710938 -14.6875 13.1875 C-14.07261719 12.10855469 -13.45773437 11.02960938 -12.82421875 9.91796875 C-10.15773078 5.65272996 -10.15773078 5.65272996 -8 4 C-4.8125 3.8125 -4.8125 3.8125 -2 4 C-1.34 2.68 -0.68 1.36 0 0 Z " fill="#E5EAEF" transform="translate(290,151)"/>
<path d="M0 0 C-0.99 1.485 -0.99 1.485 -2 3 C-2.99 3 -3.98 3 -5 3 C-5 4.98 -5 6.96 -5 9 C-6.32 9.33 -7.64 9.66 -9 10 C-8.98839844 10.99902344 -8.97679688 11.99804688 -8.96484375 13.02734375 C-8.95582031 14.31769531 -8.94679688 15.60804687 -8.9375 16.9375 C-8.92589844 18.22527344 -8.91429688 19.51304687 -8.90234375 20.83984375 C-9 24 -9 24 -10 25 C-11.51928038 25.07179964 -13.04167482 25.08392007 -14.5625 25.0625 C-15.38878906 25.05347656 -16.21507813 25.04445312 -17.06640625 25.03515625 C-18.02353516 25.01775391 -18.02353516 25.01775391 -19 25 C-21.17808026 17.73973247 -21.59722507 10.54673035 -22 3 C-20.68 3.33 -19.36 3.66 -18 4 C-17.67 3.34 -17.34 2.68 -17 2 C-11.43592034 0.27321666 -5.79196155 -0.25182442 0 0 Z " fill="#E7EBEF" transform="translate(131,111)"/>
<path d="M0 0 C0.66 0 1.32 0 2 0 C2.66 2.31 3.32 4.62 4 7 C4.99 7 5.98 7 7 7 C7.02505615 7.65073486 7.0501123 8.30146973 7.07592773 8.97192383 C7.19193702 11.91898046 7.31464115 14.8657213 7.4375 17.8125 C7.47681641 18.83666016 7.51613281 19.86082031 7.55664062 20.91601562 C7.59853516 21.89892578 7.64042969 22.88183594 7.68359375 23.89453125 C7.72025146 24.80050049 7.75690918 25.70646973 7.79467773 26.63989258 C7.9208205 29.15048782 7.9208205 29.15048782 9 32 C8.5625 34.6875 8.5625 34.6875 8 37 C4.67663535 35.33831768 4.23098644 31.59357833 3.0625 28.25 C0.41632893 19.70984303 0.41632893 19.70984303 -5.48046875 13.41796875 C-6.37378906 13.01191406 -7.26710938 12.60585937 -8.1875 12.1875 C-9.08855469 11.76855469 -9.98960938 11.34960938 -10.91796875 10.91796875 C-11.60503906 10.61503906 -12.29210937 10.31210938 -13 10 C-13 9.34 -13 8.68 -13 8 C-12.360625 7.87625 -11.72125 7.7525 -11.0625 7.625 C-10.381875 7.41875 -9.70125 7.2125 -9 7 C-8.67 6.34 -8.34 5.68 -8 5 C-7.34 5.66 -6.68 6.32 -6 7 C-6 6.01 -6 5.02 -6 4 C-1.125 2 -1.125 2 0 2 C0 1.34 0 0.68 0 0 Z " fill="#DAE5EE" transform="translate(98,108)"/>
<path d="M0 0 C0.63706811 4.24712072 -0.09737229 6.64037891 -2.5 10.0625 C-5.6803017 13.98889143 -9.31616587 17.02785931 -14 19 C-15.32 19 -16.64 19 -18 19 C-15.25848042 11.2323612 -10.52896575 5.86655968 -4 1 C-1 0 -1 0 0 0 Z " fill="#E6EBEF" transform="translate(210,135)"/>
<path d="M0 0 C0 0.66 0 1.32 0 2 C-16.17860641 7.27208787 -32.341045 12.02346991 -49.0625 15.25 C-50.32876221 15.49484131 -50.32876221 15.49484131 -51.62060547 15.74462891 C-59.58727084 17.21923935 -67.51206596 18.15683644 -75.625 18.0625 C-76.64851562 18.05347656 -77.67203125 18.04445312 -78.7265625 18.03515625 C-79.47679687 18.02355469 -80.22703125 18.01195312 -81 18 C-81 17.67 -81 17.34 -81 17 C-80.14470703 16.89977539 -79.28941406 16.79955078 -78.40820312 16.69628906 C-56.99367646 14.35451681 -56.99367646 14.35451681 -36.03027344 9.59912109 C-33.58260154 8.87682831 -31.12405858 8.19864214 -28.6640625 7.51953125 C-18.50892358 4.74863298 -18.50892358 4.74863298 -8.5625 1.328125 C-5.35600769 0.13272216 -3.35917846 -0.31492298 0 0 Z " fill="#B9D5EE" transform="translate(263,178)"/>
<path d="M0 0 C-0.87325928 0.26216309 -1.74651855 0.52432617 -2.64624023 0.79443359 C-5.8778232 1.7685832 -9.10715622 2.74958344 -12.33520508 3.73535156 C-13.73410195 4.16098271 -15.13384392 4.58384642 -16.53442383 5.00390625 C-18.54475618 5.60736177 -20.55186248 6.22062864 -22.55859375 6.8359375 C-23.76829834 7.20251465 -24.97800293 7.5690918 -26.22436523 7.94677734 C-29.1271596 8.68966139 -29.1271596 8.68966139 -30 11 C-32.46506628 11.75542354 -34.86376183 12.378521 -37.375 12.9375 C-38.12579834 13.10862305 -38.87659668 13.27974609 -39.65014648 13.45605469 C-45.42441483 14.73406895 -51.2254857 15.80222247 -57.0625 16.75 C-58.22048096 16.94130493 -58.22048096 16.94130493 -59.40185547 17.13647461 C-64.32333983 17.89464923 -69.02082235 18.11303468 -74 18 C-74 17.67 -74 17.34 -74 17 C-71.10496617 16.49494737 -68.20912047 15.9957978 -65.3125 15.5 C-64.49587891 15.35691406 -63.67925781 15.21382812 -62.83789062 15.06640625 C-58.85021752 14.38834038 -55.06269596 13.80141608 -51 14 C-51 13.34 -51 12.68 -51 12 C-50.03964844 11.79246094 -49.07929688 11.58492187 -48.08984375 11.37109375 C-37.26258077 8.96055642 -26.70569744 5.88228247 -16.1171875 2.5859375 C-15.23514648 2.31362305 -14.35310547 2.04130859 -13.44433594 1.76074219 C-11.92822117 1.28888705 -10.4151293 0.80704452 -8.90722656 0.30957031 C-5.47565357 -0.77955732 -3.42424637 -1.03291472 0 0 Z " fill="#67ABEB" transform="translate(260,175)"/>
<path d="M0 0 C0 0.33 0 0.66 0 1 C-7.26 2.32 -14.52 3.64 -22 5 C-22 5.33 -22 5.66 -22 6 C-33.55 6 -45.1 6 -57 6 C-57 5.34 -57 4.68 -57 4 C-56.27224365 3.98541748 -55.5444873 3.97083496 -54.79467773 3.95581055 C-39.91881856 3.62544343 -25.35519488 2.81367374 -10.6328125 0.62109375 C-7.0564194 0.09777168 -3.62276639 -0.13749773 0 0 Z " fill="#4098EA" transform="translate(209,188)"/>
<path d="M0 0 C3.16115776 1.36983503 3.9927092 1.9890638 6 5 C6 5.99 6 6.98 6 8 C4 10 4 10 1.375 10.125 C0.59125 10.08375 -0.1925 10.0425 -1 10 C-1.33 11.32 -1.66 12.64 -2 14 C-2.33 13.34 -2.66 12.68 -3 12 C-3.99 11.67 -4.98 11.34 -6 11 C-5.57576756 9.53775201 -5.13509755 8.08026588 -4.6875 6.625 C-4.44386719 5.81289062 -4.20023437 5.00078125 -3.94921875 4.1640625 C-3 2 -3 2 0 0 Z " fill="#1883E9" transform="translate(115,103)"/>
<path d="M0 0 C5.28 0 10.56 0 16 0 C15.67 1.65 15.34 3.3 15 5 C10.05 5 5.1 5 0 5 C0 3.35 0 1.7 0 0 Z " fill="#E0E8EF" transform="translate(150,146)"/>
<path d="M0 0 C4.36167802 0.7508498 8.48969901 2.06983896 12.6875 3.4375 C18.73415795 5.37384383 24.72010423 6.98857448 31 8 C30.01 9.32 29.02 10.64 28 12 C21.91062617 11.03851992 16.73774801 9.15728982 11.1875 6.5625 C10.54159912 6.26206787 9.89569824 5.96163574 9.23022461 5.65209961 C5.88375561 4.04881019 2.8674993 2.36189489 0 0 Z " fill="#1C85E8" transform="translate(109,183)"/>
<path d="M0 0 C3.46941546 0.45822468 6.67395049 0.89131683 10 2 C8.71700242 4.86207152 7.469364 7.0245088 5 9 C4.01 9 3.02 9 2 9 C2 8.01 2 7.02 2 6 C0.02 6.99 0.02 6.99 -2 8 C-1.47731534 5.23723823 -0.89130413 2.6739124 0 0 Z " fill="#C1D8EE" transform="translate(156,111)"/>
<path d="M0 0 C4.29 0 8.58 0 13 0 C12.67 1.65 12.34 3.3 12 5 C7.71 5 3.42 5 -1 5 C-0.67 3.35 -0.34 1.7 0 0 Z " fill="#C9DCEF" transform="translate(149,156)"/>
<path d="M0 0 C4.29 0 8.58 0 13 0 C13.33 1.65 13.66 3.3 14 5 C9.71 5 5.42 5 1 5 C0.67 3.35 0.34 1.7 0 0 Z " fill="#DDE6EF" transform="translate(115,146)"/>
<path d="M0 0 C0.90492187 0.02320312 1.80984375 0.04640625 2.7421875 0.0703125 C4.10730469 0.09738281 4.10730469 0.09738281 5.5 0.125 C6.19867188 0.14820312 6.89734375 0.17140625 7.6171875 0.1953125 C7.6171875 0.5253125 7.6171875 0.8553125 7.6171875 1.1953125 C5.9671875 1.1953125 4.3171875 1.1953125 2.6171875 1.1953125 C2.6378125 2.1440625 2.6584375 3.0928125 2.6796875 4.0703125 C2.6171875 7.1953125 2.6171875 7.1953125 1.6171875 9.1953125 C-3.2578125 8.3203125 -3.2578125 8.3203125 -4.3828125 7.1953125 C-4.5703125 4.7578125 -4.5703125 4.7578125 -4.3828125 2.1953125 C-2.3828125 0.1953125 -2.3828125 0.1953125 0 0 Z " fill="#117DE3" transform="translate(81.3828125,118.8046875)"/>
<path d="M0 0 C1.51400391 0.01740234 1.51400391 0.01740234 3.05859375 0.03515625 C4.07050781 0.04417969 5.08242187 0.05320313 6.125 0.0625 C7.29869141 0.07990234 7.29869141 0.07990234 8.49609375 0.09765625 C8.16609375 1.74765625 7.83609375 3.39765625 7.49609375 5.09765625 C4.19609375 5.09765625 0.89609375 5.09765625 -2.50390625 5.09765625 C-2.83390625 3.77765625 -3.16390625 2.45765625 -3.50390625 1.09765625 C-2.50390625 0.09765625 -2.50390625 0.09765625 0 0 Z " fill="#DDE6EF" transform="translate(136.50390625,145.90234375)"/>
<path d="M0 0 C1.37478516 0.01740234 1.37478516 0.01740234 2.77734375 0.03515625 C3.69644531 0.04417969 4.61554688 0.05320313 5.5625 0.0625 C6.27277344 0.07410156 6.98304688 0.08570313 7.71484375 0.09765625 C8.04484375 1.74765625 8.37484375 3.39765625 8.71484375 5.09765625 C5.08484375 5.09765625 1.45484375 5.09765625 -2.28515625 5.09765625 C-2.61515625 3.77765625 -2.94515625 2.45765625 -3.28515625 1.09765625 C-2.28515625 0.09765625 -2.28515625 0.09765625 0 0 Z " fill="#C6DBEF" transform="translate(122.28515625,155.90234375)"/>
<path d="M0 0 C0.66 0 1.32 0 2 0 C1.66951441 5.28776943 -1.48352195 9.24100622 -5 13 C-5.66 13 -6.32 13 -7 13 C-6.36664937 7.61651963 -3.79089107 3.79089107 0 0 Z " fill="#D4E2EF" transform="translate(303,150)"/>
<path d="M0 0 C1.1875 3.5625 1.1875 3.5625 2 7 C1.34 7 0.68 7 0 7 C-0.33 6.34 -0.66 5.68 -1 5 C-1.99 4.67 -2.98 4.34 -4 4 C-3.34 5.65 -2.68 7.3 -2 9 C-2.66 9 -3.32 9 -4 9 C-4.66 7.68 -5.32 6.36 -6 5 C-6.33 5.66 -6.66 6.32 -7 7 C-7.66 6.67 -8.32 6.34 -9 6 C-7.54266958 1.38512035 -7.54266958 1.38512035 -5.0625 -0.375 C-3 -1 -3 -1 0 0 Z " fill="#98BFE3" transform="translate(172,167)"/>
<path d="M0 0 C4 4.5 4 4.5 4 9 C3.34 8.67 2.68 8.34 2 8 C1.67 8 1.34 8 1 8 C-0.33568021 7.67619874 -1.66923011 7.34342449 -3 7 C-3.33 5.35 -3.66 3.7 -4 2 C-2.68 1.34 -1.36 0.68 0 0 Z " fill="#E4E4E4" transform="translate(324,273)"/>
<path d="M0 0 C4 4.5 4 4.5 4 9 C3.34 8.67 2.68 8.34 2 8 C1.67 8 1.34 8 1 8 C-0.33568021 7.67619874 -1.66923011 7.34342449 -3 7 C-3.33 5.35 -3.66 3.7 -4 2 C-2.68 1.34 -1.36 0.68 0 0 Z " fill="#E4E4E4" transform="translate(163,273)"/>
<path d="M0 0 C4 4.5 4 4.5 4 9 C3.34 8.67 2.68 8.34 2 8 C1.67 8 1.34 8 1 8 C-0.33568021 7.67619874 -1.66923011 7.34342449 -3 7 C-3.33 5.35 -3.66 3.7 -4 2 C-2.68 1.34 -1.36 0.68 0 0 Z " fill="#E4E4E4" transform="translate(257,211)"/>
<path d="M0 0 C4 4.5 4 4.5 4 9 C3.34 8.67 2.68 8.34 2 8 C1.67 8 1.34 8 1 8 C-0.33568021 7.67619874 -1.66923011 7.34342449 -3 7 C-3.33 5.35 -3.66 3.7 -4 2 C-2.68 1.34 -1.36 0.68 0 0 Z " fill="#E4E4E4" transform="translate(96,211)"/>
<path d="M0 0 C4 4.5 4 4.5 4 9 C3.34 8.67 2.68 8.34 2 8 C1.67 8 1.34 8 1 8 C-0.33568021 7.67619874 -1.66923011 7.34342449 -3 7 C-3.33 5.35 -3.66 3.7 -4 2 C-2.68 1.34 -1.36 0.68 0 0 Z " fill="#E4E4E4" transform="translate(324,172)"/>
<path d="M0 0 C4 4.5 4 4.5 4 9 C3.34 8.67 2.68 8.34 2 8 C1.67 8 1.34 8 1 8 C-0.33568021 7.67619874 -1.66923011 7.34342449 -3 7 C-3.33 5.35 -3.66 3.7 -4 2 C-2.68 1.34 -1.36 0.68 0 0 Z " fill="#E4E4E4" transform="translate(257,110)"/>
<path d="M0 0 C4 4.5 4 4.5 4 9 C3.34 8.67 2.68 8.34 2 8 C1.67 8 1.34 8 1 8 C-0.33568021 7.67619874 -1.66923011 7.34342449 -3 7 C-3.33 5.35 -3.66 3.7 -4 2 C-2.68 1.34 -1.36 0.68 0 0 Z " fill="#E4E4E4" transform="translate(324,71)"/>
<path d="M0 0 C4 4.5 4 4.5 4 9 C3.34 8.67 2.68 8.34 2 8 C1.67 8 1.34 8 1 8 C-0.33568021 7.67619874 -1.66923011 7.34342449 -3 7 C-3.33 5.35 -3.66 3.7 -4 2 C-2.68 1.34 -1.36 0.68 0 0 Z " fill="#E4E4E4" transform="translate(163,71)"/>
<path d="M0 0 C4 4.5 4 4.5 4 9 C3.34 8.67 2.68 8.34 2 8 C1.67 8 1.34 8 1 8 C-0.33568021 7.67619874 -1.66923011 7.34342449 -3 7 C-3.33 5.35 -3.66 3.7 -4 2 C-2.68 1.34 -1.36 0.68 0 0 Z " fill="#E4E4E4" transform="translate(257,9)"/>
<path d="M0 0 C4 4.5 4 4.5 4 9 C3.34 8.67 2.68 8.34 2 8 C1.67 8 1.34 8 1 8 C-0.33568021 7.67619874 -1.66923011 7.34342449 -3 7 C-3.33 5.35 -3.66 3.7 -4 2 C-2.68 1.34 -1.36 0.68 0 0 Z " fill="#E4E4E4" transform="translate(96,9)"/>
<path d="M0 0 C4 4.5 4 4.5 4 9 C2.68 9.33 1.36 9.66 0 10 C0 9.34 0 8.68 0 8 C-0.66 8 -1.32 8 -2 8 C-2 5.69 -2 3.38 -2 1 C-1.34 0.67 -0.68 0.34 0 0 Z " fill="#E5E5E5" transform="translate(2,273)"/>
<path d="M0 0 C4 4.5 4 4.5 4 9 C2.68 9.33 1.36 9.66 0 10 C0 9.34 0 8.68 0 8 C-0.66 8 -1.32 8 -2 8 C-2 5.69 -2 3.38 -2 1 C-1.34 0.67 -0.68 0.34 0 0 Z " fill="#E5E5E5" transform="translate(2,172)"/>
<path d="M0 0 C1.65 1.32 3.3 2.64 5 4 C4.34 5.65 3.68 7.3 3 9 C0.83125748 8.49396008 -0.99967627 8.00016187 -3 7 C-1.125 2.25 -1.125 2.25 0 0 Z " fill="#0C7EE9" transform="translate(88,162)"/>
<path d="M0 0 C0.66 0 1.32 0 2 0 C2.99 2.97 3.98 5.94 5 9 C3.02 9.99 3.02 9.99 1 11 C0.34 10.67 -0.32 10.34 -1 10 C-1.34153937 8.33499557 -1.67449498 6.66821323 -2 5 C-2.66 4.34 -3.32 3.68 -4 3 C-1 2 -1 2 0 2 C0 1.34 0 0.68 0 0 Z " fill="#D8DCE0" transform="translate(98,108)"/>
<path d="M0 0 C4 4.5 4 4.5 4 9 C2.68 9.33 1.36 9.66 0 10 C0 9.34 0 8.68 0 8 C-0.66 8 -1.32 8 -2 8 C-2 5.69 -2 3.38 -2 1 C-1.34 0.67 -0.68 0.34 0 0 Z " fill="#E5E5E5" transform="translate(2,71)"/>
<path d="M0 0 C0.99 0 1.98 0 3 0 C3 4.29 3 8.58 3 13 C2.01 13.33 1.02 13.66 0 14 C0 9.38 0 4.76 0 0 Z " fill="#DBE5EF" transform="translate(159,122)"/>
<path d="M0 0 C0.66 0.33 1.32 0.66 2 1 C1.07084243 2.62978448 0.13135466 4.25368275 -0.8125 5.875 C-1.59560547 7.23238281 -1.59560547 7.23238281 -2.39453125 8.6171875 C-4 11 -4 11 -7 13 C-6.52431912 8.00535076 -5.04839109 4.97214597 -2 1 C-1.34 0.67 -0.68 0.34 0 0 Z " fill="#D8E4EF" transform="translate(257,152)"/>
<path d="M0 0 C0.66 0.66 1.32 1.32 2 2 C-0.22771342 2.50643553 -2.45724076 3.0048962 -4.6875 3.5 C-6.54955078 3.91765625 -6.54955078 3.91765625 -8.44921875 4.34375 C-11.42398218 4.89354126 -13.99368602 5.13795705 -17 5 C-14.35261084 3.5393715 -13.10551666 3 -10 3 C-10 2.34 -10 1.68 -10 1 C-6.61401171 -0.04184255 -3.53318313 -0.23042499 0 0 Z " fill="#9BC5ED" transform="translate(228,184)"/>
<path d="M0 0 C0.66 0 1.32 0 2 0 C3.625 2.5 3.625 2.5 5 5 C4.01 5.99 3.02 6.98 2 8 C0.68 7.34 -0.64 6.68 -2 6 C-2 2 -2 2 0 0 Z " fill="#1A85E9" transform="translate(177,111)"/>
<path d="M0 0 C2.125 0.375 2.125 0.375 4 1 C4.625 2.875 4.625 2.875 5 5 C4.34 5.66 3.68 6.32 3 7 C0.875 6.625 0.875 6.625 -1 6 C-1.625 4.125 -1.625 4.125 -2 2 C-1.34 1.34 -0.68 0.68 0 0 Z " fill="#E4E4E4" transform="translate(296,289)"/>
<path d="M0 0 C2.125 0.375 2.125 0.375 4 1 C4.625 2.875 4.625 2.875 5 5 C4.34 5.66 3.68 6.32 3 7 C0.875 6.625 0.875 6.625 -1 6 C-1.625 4.125 -1.625 4.125 -2 2 C-1.34 1.34 -0.68 0.68 0 0 Z " fill="#E4E4E4" transform="translate(135,289)"/>
<path d="M0 0 C2.125 0.375 2.125 0.375 4 1 C4.625 2.875 4.625 2.875 5 5 C4.34 5.66 3.68 6.32 3 7 C0.875 6.625 0.875 6.625 -1 6 C-1.625 4.125 -1.625 4.125 -2 2 C-1.34 1.34 -0.68 0.68 0 0 Z " fill="#E4E4E4" transform="translate(390,227)"/>
<path d="M0 0 C2.125 0.375 2.125 0.375 4 1 C4.625 2.875 4.625 2.875 5 5 C4.34 5.66 3.68 6.32 3 7 C0.875 6.625 0.875 6.625 -1 6 C-1.625 4.125 -1.625 4.125 -2 2 C-1.34 1.34 -0.68 0.68 0 0 Z " fill="#E4E4E4" transform="translate(229,227)"/>
<path d="M0 0 C2.125 0.375 2.125 0.375 4 1 C4.625 2.875 4.625 2.875 5 5 C4.34 5.66 3.68 6.32 3 7 C0.875 6.625 0.875 6.625 -1 6 C-1.625 4.125 -1.625 4.125 -2 2 C-1.34 1.34 -0.68 0.68 0 0 Z " fill="#E4E4E4" transform="translate(68,227)"/>
<path d="M0 0 C2.125 0.375 2.125 0.375 4 1 C4.625 2.875 4.625 2.875 5 5 C4.34 5.66 3.68 6.32 3 7 C0.875 6.625 0.875 6.625 -1 6 C-1.625 4.125 -1.625 4.125 -2 2 C-1.34 1.34 -0.68 0.68 0 0 Z " fill="#E4E4E4" transform="translate(296,188)"/>
<path d="M0 0 C0.99 0 1.98 0 3 0 C5 3 5 3 5 7 C3.35 7.66 1.7 8.32 0 9 C-0.87890625 2.84765625 -0.87890625 2.84765625 -1 1 C-0.67 0.67 -0.34 0.34 0 0 Z " fill="#DFE3E6" transform="translate(162,174)"/>
<path d="M0 0 C2.125 0.375 2.125 0.375 4 1 C4.625 2.875 4.625 2.875 5 5 C4.34 5.66 3.68 6.32 3 7 C0.875 6.625 0.875 6.625 -1 6 C-1.625 4.125 -1.625 4.125 -2 2 C-1.34 1.34 -0.68 0.68 0 0 Z " fill="#E4E4E4" transform="translate(390,126)"/>
<path d="M0 0 C2.125 0.375 2.125 0.375 4 1 C4.625 2.875 4.625 2.875 5 5 C4.34 5.66 3.68 6.32 3 7 C0.875 6.625 0.875 6.625 -1 6 C-1.625 4.125 -1.625 4.125 -2 2 C-1.34 1.34 -0.68 0.68 0 0 Z " fill="#E4E4E4" transform="translate(229,126)"/>
<path d="M0 0 C2.125 0.375 2.125 0.375 4 1 C4.625 2.875 4.625 2.875 5 5 C4.34 5.66 3.68 6.32 3 7 C0.875 6.625 0.875 6.625 -1 6 C-1.625 4.125 -1.625 4.125 -2 2 C-1.34 1.34 -0.68 0.68 0 0 Z " fill="#E4E4E4" transform="translate(68,126)"/>
<path d="M0 0 C2.125 0.375 2.125 0.375 4 1 C4.625 2.875 4.625 2.875 5 5 C4.34 5.66 3.68 6.32 3 7 C0.875 6.625 0.875 6.625 -1 6 C-1.625 4.125 -1.625 4.125 -2 2 C-1.34 1.34 -0.68 0.68 0 0 Z " fill="#E4E4E4" transform="translate(296,87)"/>
<path d="M0 0 C2.125 0.375 2.125 0.375 4 1 C4.625 2.875 4.625 2.875 5 5 C4.34 5.66 3.68 6.32 3 7 C0.875 6.625 0.875 6.625 -1 6 C-1.625 4.125 -1.625 4.125 -2 2 C-1.34 1.34 -0.68 0.68 0 0 Z " fill="#E4E4E4" transform="translate(135,87)"/>
<path d="M0 0 C2.125 0.375 2.125 0.375 4 1 C4.625 2.875 4.625 2.875 5 5 C4.34 5.66 3.68 6.32 3 7 C0.875 6.625 0.875 6.625 -1 6 C-1.625 4.125 -1.625 4.125 -2 2 C-1.34 1.34 -0.68 0.68 0 0 Z " fill="#E4E4E4" transform="translate(390,25)"/>
<path d="M0 0 C2.125 0.375 2.125 0.375 4 1 C4.625 2.875 4.625 2.875 5 5 C4.34 5.66 3.68 6.32 3 7 C0.875 6.625 0.875 6.625 -1 6 C-1.625 4.125 -1.625 4.125 -2 2 C-1.34 1.34 -0.68 0.68 0 0 Z " fill="#E4E4E4" transform="translate(229,25)"/>
<path d="M0 0 C2.125 0.375 2.125 0.375 4 1 C4.625 2.875 4.625 2.875 5 5 C4.34 5.66 3.68 6.32 3 7 C0.875 6.625 0.875 6.625 -1 6 C-1.625 4.125 -1.625 4.125 -2 2 C-1.34 1.34 -0.68 0.68 0 0 Z " fill="#E4E4E4" transform="translate(68,25)"/>
<path d="M0 0 C0.48984375 0.39960938 0.9796875 0.79921875 1.484375 1.2109375 C-1.2827386 2.24299609 -4.05353754 3.26184579 -6.828125 4.2734375 C-8.00665039 4.71526367 -8.00665039 4.71526367 -9.20898438 5.16601562 C-9.96630859 5.43994141 -10.72363281 5.71386719 -11.50390625 5.99609375 C-12.54865112 6.38099976 -12.54865112 6.38099976 -13.61450195 6.77368164 C-15.515625 7.2109375 -15.515625 7.2109375 -18.515625 6.2109375 C-15.94003974 4.9830422 -13.35741956 3.77870108 -10.765625 2.5859375 C-10.03601563 2.2353125 -9.30640625 1.8846875 -8.5546875 1.5234375 C-3.07865904 -0.96566635 -3.07865904 -0.96566635 0 0 Z " fill="#CBDDEF" transform="translate(287.515625,175.7890625)"/>
<path d="M0 0 C0.99 0.33 1.98 0.66 3 1 C3.33 3.97 3.66 6.94 4 10 C0 8 0 8 -1 7 C-1.125 4 -1.125 4 -1 1 C-0.67 0.67 -0.34 0.34 0 0 Z " fill="#1C83E4" transform="translate(151,176)"/>
<path d="M0 0 C1.875 0.25 1.875 0.25 4 1 C5.3125 2.875 5.3125 2.875 6 5 C5.67 5.99 5.34 6.98 5 8 C4.01 8 3.02 8 2 8 C0.23537317 4.91190305 0 3.76687864 0 0 Z " fill="#E9E9EA" transform="translate(100,107)"/>
<path d="M0 0 C2.64 0 5.28 0 8 0 C7.67 1.32 7.34 2.64 7 4 C4.69 4 2.38 4 0 4 C0 2.68 0 1.36 0 0 Z " fill="#D4E2EF" transform="translate(136,156)"/>
<path d="M0 0 C2.2477975 2.05233685 3.0022242 3.00667261 4 6 C1.39417629 6.93065133 0.35801776 7.14917407 -2.25 6.0625 C-2.8275 5.711875 -3.405 5.36125 -4 5 C-4 4.34 -4 3.68 -4 3 C-2.68 2.67 -1.36 2.34 0 2 C0 1.34 0 0.68 0 0 Z " fill="#E5E6E6" transform="translate(89,113)"/>
<path d="M0 0 C-6.93 3.465 -6.93 3.465 -14 7 C-13.67 5.68 -13.34 4.36 -13 3 C-10.8203125 1.69921875 -10.8203125 1.69921875 -8.125 0.6875 C-7.24070312 0.34074219 -6.35640625 -0.00601563 -5.4453125 -0.36328125 C-3 -1 -3 -1 0 0 Z " fill="#2B8DEA" transform="translate(296,175)"/>
<path d="M0 0 C0.88336837 2.4667645 1.1312406 3.63859372 0.22265625 6.140625 C-0.16019531 6.83671875 -0.54304688 7.5328125 -0.9375 8.25 C-1.31777344 8.95640625 -1.69804687 9.6628125 -2.08984375 10.390625 C-2.39019531 10.92171875 -2.69054687 11.4528125 -3 12 C-3.33 12 -3.66 12 -4 12 C-3.125 4.375 -3.125 4.375 -2 1 C-1.34 0.67 -0.68 0.34 0 0 Z " fill="#DFE7EF" transform="translate(268,153)"/>
<path d="M0 0 C2.64 0.66 5.28 1.32 8 2 C7.67 2.99 7.34 3.98 7 5 C5.35 5.33 3.7 5.66 2 6 C0 3 0 3 0 0 Z " fill="#E3E5E8" transform="translate(127,192)"/>
<path d="M0 0 C0.33 0.66 0.66 1.32 1 2 C0.01 3.32 -0.98 4.64 -2 6 C-3.65 5.67 -5.3 5.34 -7 5 C-7.33 4.01 -7.66 3.02 -8 2 C-6.865625 1.855625 -5.73125 1.71125 -4.5625 1.5625 C-1.19222799 1.38828522 -1.19222799 1.38828522 0 0 Z " fill="#E5E5E5" transform="translate(351,261)"/>
<path d="M0 0 C0.33 0.66 0.66 1.32 1 2 C0.01 3.32 -0.98 4.64 -2 6 C-3.65 5.67 -5.3 5.34 -7 5 C-7.33 4.01 -7.66 3.02 -8 2 C-6.865625 1.855625 -5.73125 1.71125 -4.5625 1.5625 C-1.19222799 1.38828522 -1.19222799 1.38828522 0 0 Z " fill="#E5E5E5" transform="translate(190,261)"/>
<path d="M0 0 C0.33 0.66 0.66 1.32 1 2 C0.01 3.32 -0.98 4.64 -2 6 C-3.65 5.67 -5.3 5.34 -7 5 C-7.33 4.01 -7.66 3.02 -8 2 C-6.865625 1.855625 -5.73125 1.71125 -4.5625 1.5625 C-1.19222799 1.38828522 -1.19222799 1.38828522 0 0 Z " fill="#E5E5E5" transform="translate(29,261)"/>
<path d="M0 0 C0.33 0.66 0.66 1.32 1 2 C0.01 3.32 -0.98 4.64 -2 6 C-3.65 5.67 -5.3 5.34 -7 5 C-7.33 4.01 -7.66 3.02 -8 2 C-6.865625 1.855625 -5.73125 1.71125 -4.5625 1.5625 C-1.19222799 1.38828522 -1.19222799 1.38828522 0 0 Z " fill="#E5E5E5" transform="translate(283,199)"/>
<path d="M0 0 C0.33 0.66 0.66 1.32 1 2 C0.01 3.32 -0.98 4.64 -2 6 C-3.65 5.67 -5.3 5.34 -7 5 C-7.33 4.01 -7.66 3.02 -8 2 C-6.865625 1.855625 -5.73125 1.71125 -4.5625 1.5625 C-1.19222799 1.38828522 -1.19222799 1.38828522 0 0 Z " fill="#E5E5E5" transform="translate(122,199)"/>
<path d="M0 0 C0.33 0.66 0.66 1.32 1 2 C0.01 3.32 -0.98 4.64 -2 6 C-3.65 5.67 -5.3 5.34 -7 5 C-7.33 4.01 -7.66 3.02 -8 2 C-6.865625 1.855625 -5.73125 1.71125 -4.5625 1.5625 C-1.19222799 1.38828522 -1.19222799 1.38828522 0 0 Z " fill="#E5E5E5" transform="translate(351,160)"/>
<path d="M0 0 C0.33 0.66 0.66 1.32 1 2 C0.01 3.32 -0.98 4.64 -2 6 C-3.65 5.67 -5.3 5.34 -7 5 C-7.33 4.01 -7.66 3.02 -8 2 C-6.865625 1.855625 -5.73125 1.71125 -4.5625 1.5625 C-1.19222799 1.38828522 -1.19222799 1.38828522 0 0 Z " fill="#E5E5E5" transform="translate(29,160)"/>
<path d="M0 0 C0.33 0.66 0.66 1.32 1 2 C0.01 3.32 -0.98 4.64 -2 6 C-3.65 5.67 -5.3 5.34 -7 5 C-7.33 4.01 -7.66 3.02 -8 2 C-6.865625 1.855625 -5.73125 1.71125 -4.5625 1.5625 C-1.19222799 1.38828522 -1.19222799 1.38828522 0 0 Z " fill="#E5E5E5" transform="translate(283,98)"/>
<path d="M0 0 C0.33 0.66 0.66 1.32 1 2 C0.01 3.32 -0.98 4.64 -2 6 C-3.65 5.67 -5.3 5.34 -7 5 C-7.33 4.01 -7.66 3.02 -8 2 C-6.865625 1.855625 -5.73125 1.71125 -4.5625 1.5625 C-1.19222799 1.38828522 -1.19222799 1.38828522 0 0 Z " fill="#E5E5E5" transform="translate(351,59)"/>
<path d="M0 0 C0.33 0.66 0.66 1.32 1 2 C0.01 3.32 -0.98 4.64 -2 6 C-3.65 5.67 -5.3 5.34 -7 5 C-7.33 4.01 -7.66 3.02 -8 2 C-6.865625 1.855625 -5.73125 1.71125 -4.5625 1.5625 C-1.19222799 1.38828522 -1.19222799 1.38828522 0 0 Z " fill="#E5E5E5" transform="translate(190,59)"/>
<path d="M0 0 C0.33 0.66 0.66 1.32 1 2 C0.01 3.32 -0.98 4.64 -2 6 C-3.65 5.67 -5.3 5.34 -7 5 C-7.33 4.01 -7.66 3.02 -8 2 C-6.865625 1.855625 -5.73125 1.71125 -4.5625 1.5625 C-1.19222799 1.38828522 -1.19222799 1.38828522 0 0 Z " fill="#E5E5E5" transform="translate(29,59)"/>
<path d="M0 0 C2.475 0.495 2.475 0.495 5 1 C5 2.65 5 4.3 5 6 C3.68 5.67 2.36 5.34 1 5 C0.67 3.35 0.34 1.7 0 0 Z " fill="#E7E7E7" transform="translate(92,112)"/>
<path d="M0 0 C0.66 0 1.32 0 2 0 C2.33 0.99 2.66 1.98 3 3 C3.99 3.33 4.98 3.66 6 4 C5.67 2.68 5.34 1.36 5 0 C5.66 0 6.32 0 7 0 C7.125 2.375 7.125 2.375 7 5 C6.34 5.66 5.68 6.32 5 7 C4.67 7.66 4.34 8.32 4 9 C0 2.25 0 2.25 0 0 Z " fill="#DEDEDE" transform="translate(300,286)"/>
<path d="M0 0 C0.66 0 1.32 0 2 0 C2.33 0.99 2.66 1.98 3 3 C3.99 3.33 4.98 3.66 6 4 C5.67 2.68 5.34 1.36 5 0 C5.66 0 6.32 0 7 0 C7.125 2.375 7.125 2.375 7 5 C6.34 5.66 5.68 6.32 5 7 C4.67 7.66 4.34 8.32 4 9 C0 2.25 0 2.25 0 0 Z " fill="#DEDEDE" transform="translate(139,286)"/>
<path d="M0 0 C0.66 0 1.32 0 2 0 C2.33 0.99 2.66 1.98 3 3 C3.99 3.33 4.98 3.66 6 4 C5.67 2.68 5.34 1.36 5 0 C5.66 0 6.32 0 7 0 C7.125 2.375 7.125 2.375 7 5 C6.34 5.66 5.68 6.32 5 7 C4.67 7.66 4.34 8.32 4 9 C0 2.25 0 2.25 0 0 Z " fill="#DEDEDE" transform="translate(233,224)"/>
<path d="M0 0 C0.66 0 1.32 0 2 0 C2.33 0.99 2.66 1.98 3 3 C3.99 3.33 4.98 3.66 6 4 C5.67 2.68 5.34 1.36 5 0 C5.66 0 6.32 0 7 0 C7.125 2.375 7.125 2.375 7 5 C6.34 5.66 5.68 6.32 5 7 C4.67 7.66 4.34 8.32 4 9 C0 2.25 0 2.25 0 0 Z " fill="#DEDEDE" transform="translate(72,224)"/>
<path d="M0 0 C0.66 0 1.32 0 2 0 C2.33 0.99 2.66 1.98 3 3 C3.99 3.33 4.98 3.66 6 4 C5.67 2.68 5.34 1.36 5 0 C5.66 0 6.32 0 7 0 C7.125 2.375 7.125 2.375 7 5 C6.34 5.66 5.68 6.32 5 7 C4.67 7.66 4.34 8.32 4 9 C0 2.25 0 2.25 0 0 Z " fill="#DEDEDE" transform="translate(300,185)"/>
<path d="M0 0 C0.66 0 1.32 0 2 0 C2.33 0.99 2.66 1.98 3 3 C3.99 3.33 4.98 3.66 6 4 C5.67 2.68 5.34 1.36 5 0 C5.66 0 6.32 0 7 0 C7.125 2.375 7.125 2.375 7 5 C6.34 5.66 5.68 6.32 5 7 C4.67 7.66 4.34 8.32 4 9 C0 2.25 0 2.25 0 0 Z " fill="#DEDEDE" transform="translate(233,123)"/>
<path d="M0 0 C1.32 0.66 2.64 1.32 4 2 C4 2.99 4 3.98 4 5 C2.02 5 0.04 5 -2 5 C-1.125 1.125 -1.125 1.125 0 0 Z " fill="#D0E0EF" transform="translate(117,106)"/>
<path d="M0 0 C0.66 0 1.32 0 2 0 C2.33 0.99 2.66 1.98 3 3 C3.99 3.33 4.98 3.66 6 4 C5.67 2.68 5.34 1.36 5 0 C5.66 0 6.32 0 7 0 C7.125 2.375 7.125 2.375 7 5 C6.34 5.66 5.68 6.32 5 7 C4.67 7.66 4.34 8.32 4 9 C0 2.25 0 2.25 0 0 Z " fill="#DEDEDE" transform="translate(300,84)"/>
<path d="M0 0 C0.66 0 1.32 0 2 0 C2.33 0.99 2.66 1.98 3 3 C3.99 3.33 4.98 3.66 6 4 C5.67 2.68 5.34 1.36 5 0 C5.66 0 6.32 0 7 0 C7.125 2.375 7.125 2.375 7 5 C6.34 5.66 5.68 6.32 5 7 C4.67 7.66 4.34 8.32 4 9 C0 2.25 0 2.25 0 0 Z " fill="#DEDEDE" transform="translate(139,84)"/>
<path d="M0 0 C0.66 0 1.32 0 2 0 C2.33 0.99 2.66 1.98 3 3 C3.99 3.33 4.98 3.66 6 4 C5.67 2.68 5.34 1.36 5 0 C5.66 0 6.32 0 7 0 C7.125 2.375 7.125 2.375 7 5 C6.34 5.66 5.68 6.32 5 7 C4.67 7.66 4.34 8.32 4 9 C0 2.25 0 2.25 0 0 Z " fill="#DEDEDE" transform="translate(233,22)"/>
<path d="M0 0 C0.66 0 1.32 0 2 0 C2.33 0.99 2.66 1.98 3 3 C3.99 3.33 4.98 3.66 6 4 C5.67 2.68 5.34 1.36 5 0 C5.66 0 6.32 0 7 0 C7.125 2.375 7.125 2.375 7 5 C6.34 5.66 5.68 6.32 5 7 C4.67 7.66 4.34 8.32 4 9 C0 2.25 0 2.25 0 0 Z " fill="#DEDEDE" transform="translate(72,22)"/>
<path d="M0 0 C1.98 0 3.96 0 6 0 C6.33 0.99 6.66 1.98 7 3 C4.36 3 1.72 3 -1 3 C-0.67 2.01 -0.34 1.02 0 0 Z " fill="#E6E6E6" transform="translate(276,297)"/>
<path d="M0 0 C1.98 0 3.96 0 6 0 C6.33 0.99 6.66 1.98 7 3 C4.36 3 1.72 3 -1 3 C-0.67 2.01 -0.34 1.02 0 0 Z " fill="#E6E6E6" transform="translate(115,297)"/>
<path d="M0 0 C0.33 0 0.66 0 1 0 C1.33 3.3 1.66 6.6 2 10 C1.01 10.495 1.01 10.495 0 11 C-0.309375 10.21625 -0.61875 9.4325 -0.9375 8.625 C-1.92875038 6.07669872 -1.92875038 6.07669872 -3 4 C-2.34 4 -1.68 4 -1 4 C-0.67 2.68 -0.34 1.36 0 0 Z " fill="#DFDFDF" transform="translate(311,280)"/>
<path d="M0 0 C0.33 0 0.66 0 1 0 C1.33 3.3 1.66 6.6 2 10 C1.01 10.495 1.01 10.495 0 11 C-0.309375 10.21625 -0.61875 9.4325 -0.9375 8.625 C-1.92875038 6.07669872 -1.92875038 6.07669872 -3 4 C-2.34 4 -1.68 4 -1 4 C-0.67 2.68 -0.34 1.36 0 0 Z " fill="#DFDFDF" transform="translate(150,280)"/>
<path d="M0 0 C0.33 0 0.66 0 1 0 C1.33 3.3 1.66 6.6 2 10 C1.01 10.495 1.01 10.495 0 11 C-0.309375 10.21625 -0.61875 9.4325 -0.9375 8.625 C-1.92875038 6.07669872 -1.92875038 6.07669872 -3 4 C-2.34 4 -1.68 4 -1 4 C-0.67 2.68 -0.34 1.36 0 0 Z " fill="#DFDFDF" transform="translate(244,218)"/>
<path d="M0 0 C0.33 0 0.66 0 1 0 C1.33 3.3 1.66 6.6 2 10 C1.01 10.495 1.01 10.495 0 11 C-0.309375 10.21625 -0.61875 9.4325 -0.9375 8.625 C-1.92875038 6.07669872 -1.92875038 6.07669872 -3 4 C-2.34 4 -1.68 4 -1 4 C-0.67 2.68 -0.34 1.36 0 0 Z " fill="#DFDFDF" transform="translate(83,218)"/>
<path d="M0 0 C2.31 0.33 4.62 0.66 7 1 C6.01 2.32 5.02 3.64 4 5 C2.35 4.67 0.7 4.34 -1 4 C-0.67 2.68 -0.34 1.36 0 0 Z " fill="#2988E1" transform="translate(133,190)"/>
<path d="M0 0 C-1.62171239 0.38897161 -3.24754925 0.76078298 -4.875 1.125 C-5.77992188 1.33382812 -6.68484375 1.54265625 -7.6171875 1.7578125 C-8.40351563 1.83773437 -9.18984375 1.91765625 -10 2 C-10.66 1.34 -11.32 0.68 -12 0 C-3.96428571 -2.41071429 -3.96428571 -2.41071429 0 0 Z " fill="#ABCDEE" transform="translate(241,187)"/>
<path d="M0 0 C0.33 0 0.66 0 1 0 C1.33 3.3 1.66 6.6 2 10 C1.01 10.495 1.01 10.495 0 11 C-0.309375 10.21625 -0.61875 9.4325 -0.9375 8.625 C-1.92875038 6.07669872 -1.92875038 6.07669872 -3 4 C-2.34 4 -1.68 4 -1 4 C-0.67 2.68 -0.34 1.36 0 0 Z " fill="#DFDFDF" transform="translate(311,179)"/>
<path d="M0 0 C0.33 0 0.66 0 1 0 C1.33 3.3 1.66 6.6 2 10 C1.01 10.495 1.01 10.495 0 11 C-0.309375 10.21625 -0.61875 9.4325 -0.9375 8.625 C-1.92875038 6.07669872 -1.92875038 6.07669872 -3 4 C-2.34 4 -1.68 4 -1 4 C-0.67 2.68 -0.34 1.36 0 0 Z " fill="#DFDFDF" transform="translate(244,117)"/>
<path d="M0 0 C0.33 0 0.66 0 1 0 C1.33 3.3 1.66 6.6 2 10 C1.01 10.495 1.01 10.495 0 11 C-0.309375 10.21625 -0.61875 9.4325 -0.9375 8.625 C-1.92875038 6.07669872 -1.92875038 6.07669872 -3 4 C-2.34 4 -1.68 4 -1 4 C-0.67 2.68 -0.34 1.36 0 0 Z " fill="#DFDFDF" transform="translate(311,78)"/>
<path d="M0 0 C0.33 0 0.66 0 1 0 C1.33 3.3 1.66 6.6 2 10 C1.01 10.495 1.01 10.495 0 11 C-0.309375 10.21625 -0.61875 9.4325 -0.9375 8.625 C-1.92875038 6.07669872 -1.92875038 6.07669872 -3 4 C-2.34 4 -1.68 4 -1 4 C-0.67 2.68 -0.34 1.36 0 0 Z " fill="#DFDFDF" transform="translate(150,78)"/>
<path d="M0 0 C0.33 0 0.66 0 1 0 C1.33 3.3 1.66 6.6 2 10 C1.01 10.495 1.01 10.495 0 11 C-0.309375 10.21625 -0.61875 9.4325 -0.9375 8.625 C-1.92875038 6.07669872 -1.92875038 6.07669872 -3 4 C-2.34 4 -1.68 4 -1 4 C-0.67 2.68 -0.34 1.36 0 0 Z " fill="#DFDFDF" transform="translate(244,16)"/>
<path d="M0 0 C0.33 0 0.66 0 1 0 C1.33 3.3 1.66 6.6 2 10 C1.01 10.495 1.01 10.495 0 11 C-0.309375 10.21625 -0.61875 9.4325 -0.9375 8.625 C-1.92875038 6.07669872 -1.92875038 6.07669872 -3 4 C-2.34 4 -1.68 4 -1 4 C-0.67 2.68 -0.34 1.36 0 0 Z " fill="#DFDFDF" transform="translate(83,16)"/>
<path d="M0 0 C0.66 0 1.32 0 2 0 C2.33 0.99 2.66 1.98 3 3 C3.99 3.33 4.98 3.66 6 4 C6 4.99 6 5.98 6 7 C4.35 7 2.7 7 1 7 C0.67 4.69 0.34 2.38 0 0 Z " fill="#CFD9E2" transform="translate(139,185)"/>
<path d="M0 0 C0.66 0 1.32 0 2 0 C2.33 0.99 2.66 1.98 3 3 C5.01508358 3.73323796 5.01508358 3.73323796 7 4 C6.01 5.485 6.01 5.485 5 7 C4.67 7.66 4.34 8.32 4 9 C0 2.25 0 2.25 0 0 Z " fill="#DDDEE0" transform="translate(72,123)"/>
<path d="M0 0 C3.3 0 6.6 0 10 0 C10 0.33 10 0.66 10 1 C8.02 1 6.04 1 4 1 C4 1.99 4 2.98 4 4 C1.525 3.01 1.525 3.01 -1 2 C-0.67 1.34 -0.34 0.68 0 0 Z " fill="#4396E3" transform="translate(79,119)"/>
<path d="M0 0 C2.31 0 4.62 0 7 0 C6.01 1.485 6.01 1.485 5 3 C4.01 3 3.02 3 2 3 C1.67 4.32 1.34 5.64 1 7 C0.67 4.69 0.34 2.38 0 0 Z " fill="#9AC5ED" transform="translate(124,111)"/>
<path d="M0 0 C1.32 0.66 2.64 1.32 4 2 C3.01 3.485 3.01 3.485 2 5 C0.68 4.67 -0.64 4.34 -2 4 C-1.34 2.68 -0.68 1.36 0 0 Z " fill="#147FE3" transform="translate(99,114)"/>
<path d="M0 0 C0.33 0.66 0.66 1.32 1 2 C0.01 3.485 0.01 3.485 -1 5 C-4.125 5.1875 -4.125 5.1875 -7 5 C-4.78065836 1.67098753 -3.65316671 1.24976756 0 0 Z " fill="#DEE1E5" transform="translate(122,98)"/>
<path d="M0 0 C0.66 0 1.32 0 2 0 C2.33 0.99 2.66 1.98 3 3 C3.99 3.66 4.98 4.32 6 5 C5.34 6.32 4.68 7.64 4 9 C0 2.25 0 2.25 0 0 Z " fill="#DFDFDF" transform="translate(394,224)"/>
<path d="M0 0 C-2.75 1.625 -2.75 1.625 -6 3 C-8.375 2.1875 -8.375 2.1875 -10 1 C-3.71428571 -1.42857143 -3.71428571 -1.42857143 0 0 Z " fill="#3894EA" transform="translate(268,175)"/>
<path d="M0 0 C1.32 0.66 2.64 1.32 4 2 C3.67 2.99 3.34 3.98 3 5 C1.68 4.67 0.36 4.34 -1 4 C-0.67 2.68 -0.34 1.36 0 0 Z " fill="#2088E9" transform="translate(100,173)"/>
<path d="M0 0 C0.66 0 1.32 0 2 0 C2.33 0.99 2.66 1.98 3 3 C3.99 3.66 4.98 4.32 6 5 C5.34 6.32 4.68 7.64 4 9 C0 2.25 0 2.25 0 0 Z " fill="#DFDFDF" transform="translate(394,123)"/>
<path d="M0 0 C0.99 0 1.98 0 3 0 C3.33 0.99 3.66 1.98 4 3 C2.02 3.99 2.02 3.99 0 5 C-0.5625 3.0625 -0.5625 3.0625 -1 1 C-0.67 0.67 -0.34 0.34 0 0 Z " fill="#268BE9" transform="translate(170,101)"/>
<path d="M0 0 C0.66 0 1.32 0 2 0 C2.33 0.99 2.66 1.98 3 3 C3.99 3.66 4.98 4.32 6 5 C5.34 6.32 4.68 7.64 4 9 C0 2.25 0 2.25 0 0 Z " fill="#DFDFDF" transform="translate(394,22)"/>
<path d="M0 0 C2.64 0 5.28 0 8 0 C7.01 1.485 7.01 1.485 6 3 C3.5625 2.625 3.5625 2.625 1 2 C0.67 1.34 0.34 0.68 0 0 Z " fill="#E5E5E5" transform="translate(275,0)"/>
<path d="M0 0 C2.64 0 5.28 0 8 0 C7.01 1.485 7.01 1.485 6 3 C3.5625 2.625 3.5625 2.625 1 2 C0.67 1.34 0.34 0.68 0 0 Z " fill="#E5E5E5" transform="translate(114,0)"/>
<path d="M0 0 C1.98 0 3.96 0 6 0 C6 0.99 6 1.98 6 3 C3.66666667 3 1.33333333 3 -1 3 C-0.67 2.01 -0.34 1.02 0 0 Z " fill="#E4E4E4" transform="translate(344,258)"/>
<path d="M0 0 C1.98 0 3.96 0 6 0 C6 0.99 6 1.98 6 3 C3.66666667 3 1.33333333 3 -1 3 C-0.67 2.01 -0.34 1.02 0 0 Z " fill="#E4E4E4" transform="translate(183,258)"/>
<path d="M0 0 C1.98 0 3.96 0 6 0 C6 0.99 6 1.98 6 3 C3.66666667 3 1.33333333 3 -1 3 C-0.67 2.01 -0.34 1.02 0 0 Z " fill="#E4E4E4" transform="translate(22,258)"/>
<path d="M0 0 C1.98 0 3.96 0 6 0 C6 0.99 6 1.98 6 3 C3.66666667 3 1.33333333 3 -1 3 C-0.67 2.01 -0.34 1.02 0 0 Z " fill="#E4E4E4" transform="translate(276,196)"/>
<path d="M0 0 C1.98 0 3.96 0 6 0 C6 0.99 6 1.98 6 3 C3.66666667 3 1.33333333 3 -1 3 C-0.67 2.01 -0.34 1.02 0 0 Z " fill="#E4E4E4" transform="translate(115,196)"/>
<path d="M0 0 C0.33 0.66 0.66 1.32 1 2 C-2.3 1.67 -5.6 1.34 -9 1 C-9 0.67 -9 0.34 -9 0 C-5.67032582 -0.83241855 -3.24733335 -1.2757381 0 0 Z " fill="#CFDAE6" transform="translate(139,189)"/>
<path d="M0 0 C2.475 0.495 2.475 0.495 5 1 C5 2.65 5 4.3 5 6 C4.01 6.495 4.01 6.495 3 7 C2.690625 6.21625 2.38125 5.4325 2.0625 4.625 C1.07124962 2.07669872 1.07124962 2.07669872 0 0 Z " fill="#DDDEE0" transform="translate(147,183)"/>
<path d="M0 0 C1.32 0.66 2.64 1.32 4 2 C2 5 2 5 0 6 C-1.125 2.25 -1.125 2.25 0 0 Z " fill="#1480E5" transform="translate(181,157)"/>
<path d="M0 0 C1.98 0 3.96 0 6 0 C6 0.99 6 1.98 6 3 C3.66666667 3 1.33333333 3 -1 3 C-0.67 2.01 -0.34 1.02 0 0 Z " fill="#E4E4E4" transform="translate(344,157)"/>
<path d="M0 0 C1.98 0 3.96 0 6 0 C6 0.99 6 1.98 6 3 C3.66666667 3 1.33333333 3 -1 3 C-0.67 2.01 -0.34 1.02 0 0 Z " fill="#E4E4E4" transform="translate(22,157)"/>
<path d="M0 0 C1.98 0 3.96 0 6 0 C6 0.99 6 1.98 6 3 C3.66666667 3 1.33333333 3 -1 3 C-0.67 2.01 -0.34 1.02 0 0 Z " fill="#E4E4E4" transform="translate(276,95)"/>
<path d="M0 0 C1.98 0 3.96 0 6 0 C6 0.99 6 1.98 6 3 C3.66666667 3 1.33333333 3 -1 3 C-0.67 2.01 -0.34 1.02 0 0 Z " fill="#E4E4E4" transform="translate(115,95)"/>
<path d="M0 0 C1.98 0 3.96 0 6 0 C6 0.99 6 1.98 6 3 C3.66666667 3 1.33333333 3 -1 3 C-0.67 2.01 -0.34 1.02 0 0 Z " fill="#E4E4E4" transform="translate(344,56)"/>
<path d="M0 0 C1.98 0 3.96 0 6 0 C6 0.99 6 1.98 6 3 C3.66666667 3 1.33333333 3 -1 3 C-0.67 2.01 -0.34 1.02 0 0 Z " fill="#E4E4E4" transform="translate(183,56)"/>
<path d="M0 0 C1.98 0 3.96 0 6 0 C6 0.99 6 1.98 6 3 C3.66666667 3 1.33333333 3 -1 3 C-0.67 2.01 -0.34 1.02 0 0 Z " fill="#E4E4E4" transform="translate(22,56)"/>
</svg>
